<svg fill="none" height="58" viewBox="0 0 263 58" width="263" xmlns="http://www.w3.org/2000/svg"><g fill="#fff"><path d="m15.8574 16.646c.1162.58.1743 1.1407.1743 1.682 0 .5027-.0581 1.044-.1743 1.624l-7.37686-.058v19.488c0 1.624.75512 2.436 2.26536 2.436h4.4145c.2711.6573.4066 1.3147.4066 1.972s-.0387 1.0633-.1162 1.218c-1.7813.232-3.6206.348-5.51811.348-3.75622 0-5.63433-1.6047-5.63433-4.814v-20.648l-4.124102.058c-.1161722-.58-.174258-1.1213-.174258-1.624 0-.5413.0580858-1.102.174258-1.682l4.124102.058v-6.09c0-1.044.15489-1.77866.46468-2.204.30979-.464.91002-.696 1.80067-.696h1.56831l.34852.348v8.7z"/><path d="m43.9647 16.936-7.9578 27.202c-1.4715 4.988-3.0398 8.5067-4.705 10.556-1.6651 2.0493-4.1628 3.074-7.493 3.074-1.7039 0-3.2722-.2513-4.705-.754-.1162-1.0827.1936-2.1267.9294-3.132 1.2004.4253 2.4783.638 3.8336.638 2.0524 0 3.6207-.696 4.705-2.088s2.0717-3.5573 2.9624-6.496l.1742-.58c-1.0068-.0773-1.7813-.3093-2.3234-.696-.5034-.3867-.9294-1.102-1.2779-2.146l-8.132-25.52c1.2004-.5027 2.0524-.754 2.5558-.754 1.123 0 1.8781.6767 2.2653 2.03l4.5888 14.558c.1549.464 1.0456 3.48 2.672 9.048.0774.2707.271.406.5808.406l7.0865-25.636c.5034-.1547 1.1617-.232 1.9749-.232.8519 0 1.5683.116 2.1492.348z"/><path d="m55.1258 43.21v11.484c0 1.044-.1549 1.7787-.4647 2.204-.3098.464-.9294.696-1.8588.696h-1.5683l-.3485-.348v-40.426l.3485-.348h1.5103c.9293 0 1.5489.2513 1.8587.754.3485.464.5228 1.2373.5228 2.32v.29c2.3234-2.5907 5.0922-3.886 8.3063-3.886 3.2915 0 5.7698 1.334 7.435 4.002 1.6651 2.6293 2.4976 6.2833 2.4976 10.962 0 2.2813-.3097 4.3307-.9293 6.148-.5809 1.8173-1.3747 3.364-2.3816 4.64-.968 1.2373-2.091 2.204-3.3689 2.9-1.2779.6573-2.5945.986-3.9499.986-2.6719 0-5.2083-.7927-7.6092-2.378zm0-18.85v14.906c2.3621 1.74 4.5888 2.61 6.6799 2.61 2.091 0 3.8143-.928 5.1696-2.784s2.033-4.6593 2.033-8.41c0-1.856-.1742-3.4607-.5228-4.814-.3098-1.392-.7357-2.5327-1.2779-3.422-.5421-.928-1.181-1.6047-1.9168-2.03-.697-.464-1.4521-.696-2.2653-.696-1.549 0-3.0205.406-4.4146 1.218-1.394.812-2.5558 1.9527-3.4851 3.422z"/><path d="m102.778 32.19h-18.0071c.1936 6.5733 2.6913 9.86 7.4931 9.86 2.6332 0 5.4407-.812 8.422-2.436.852.7733 1.375 1.7593 1.569 2.958-3.1756 2.1653-6.7382 3.248-10.688 3.248-2.0137 0-3.7369-.3673-5.1697-1.102-1.4328-.7733-2.6139-1.8173-3.5432-3.132-.8907-1.3533-1.549-2.9387-1.9749-4.756-.426-1.8173-.639-3.8087-.639-5.974 0-2.204.2517-4.2147.7551-6.032.5422-1.8173 1.3166-3.3833 2.3235-4.698 1.0068-1.3147 2.2072-2.3393 3.6013-3.074 1.4328-.7347 3.0592-1.102 4.8792-1.102 1.7813 0 3.369.3287 4.763.986 1.4328.6187 2.6139 1.4887 3.5437 2.61.968 1.0827 1.703 2.3973 2.207 3.944.503 1.508.755 3.132.755 4.872 0 .696-.039 1.3727-.116 2.03-.039.6187-.097 1.218-.174 1.798zm-18.0071-3.306h13.9406v-.754c0-2.668-.5615-4.814-1.6845-6.438s-2.8074-2.436-5.0534-2.436c-2.2073 0-3.9305.87-5.1697 2.61-1.2004 1.74-1.8781 4.0793-2.033 7.018z"/><path d="m108.756 43.094c.039-.8507.271-1.7787.697-2.784.465-1.044.988-1.856 1.569-2.436 3.059 1.6627 5.75 2.494 8.074 2.494 1.277 0 2.304-.2513 3.078-.754.813-.5027 1.22-1.1793 1.22-2.03 0-1.3533-1.046-2.436-3.137-3.248l-3.252-1.218c-4.88-1.7787-7.319-4.6207-7.319-8.526 0-1.392.251-2.6293.755-3.712.542-1.1213 1.278-2.0687 2.207-2.842.968-.812 2.111-1.4307 3.427-1.856 1.317-.4253 2.788-.638 4.415-.638.735 0 1.549.058 2.439.174.93.116 1.859.29 2.788.522.93.1933 1.82.4253 2.672.696s1.588.5607 2.208.87c0 .9667-.194 1.972-.581 3.016s-.91 1.8173-1.569 2.32c-3.059-1.3533-5.711-2.03-7.957-2.03-1.007 0-1.801.2513-2.382.754-.581.464-.871 1.0827-.871 1.856 0 1.1987.968 2.146 2.904 2.842l3.543 1.276c2.556.8893 4.454 2.1073 5.693 3.654s1.859 3.3447 1.859 5.394c0 2.7453-1.027 4.9493-3.079 6.612-2.052 1.624-4.995 2.436-8.829 2.436-3.756 0-7.28-.9473-10.572-2.842z"/><path d="m159.664 33.176h-16.031c.116 2.1267.6 3.8087 1.452 5.046.891 1.1987 2.42 1.798 4.589 1.798 2.246 0 4.821-.6573 7.725-1.972 1.123 1.16 1.84 2.6873 2.149 4.582-3.098 2.204-6.815 3.306-11.152 3.306-4.105 0-7.222-1.2567-9.352-3.77-2.091-2.552-3.137-6.322-3.137-11.31 0-2.32.271-4.408.814-6.264.542-1.8947 1.336-3.4993 2.381-4.814 1.046-1.3533 2.324-2.3973 3.834-3.132s3.233-1.102 5.169-1.102c1.975 0 3.718.3093 5.228.928 1.51.58 2.788 1.4307 3.834 2.552 1.045 1.0827 1.82 2.378 2.323 3.886.542 1.508.813 3.1513.813 4.93 0 .9667-.058 1.8947-.174 2.784-.116.8507-.271 1.7013-.465 2.552zm-11.21-12.18c-3.021 0-4.647 2.2813-4.879 6.844h9.642v-.696c0-1.856-.387-3.3447-1.162-4.466-.774-1.1213-1.975-1.682-3.601-1.682z"/><path d="m191.498 25.752v12.644c0 2.4747.407 4.3113 1.22 5.51-1.239 1.0827-2.73 1.624-4.473 1.624-1.665 0-2.807-.3673-3.427-1.102-.619-.7733-.929-1.972-.929-3.596v-13.514c0-1.74-.213-2.958-.639-3.654s-1.22-1.044-2.381-1.044c-2.053 0-3.97.928-5.751 2.784v19.72c-.581.116-1.2.1933-1.859.232-.619.0387-1.258.058-1.917.058-.658 0-1.316-.0193-1.974-.058-.62-.0387-1.22-.116-1.801-.232v-28.71l.348-.406h2.905c2.168 0 3.524 1.16 4.066 3.48 2.827-2.436 5.634-3.654 8.422-3.654s4.841.9087 6.157 2.726c1.356 1.7787 2.033 4.176 2.033 7.192z"/><path d="m197.591 43.094c.039-.8507.271-1.7787.697-2.784.465-1.044.988-1.856 1.569-2.436 3.059 1.6627 5.75 2.494 8.074 2.494 1.278 0 2.304-.2513 3.078-.754.813-.5027 1.22-1.1793 1.22-2.03 0-1.3533-1.045-2.436-3.137-3.248l-3.252-1.218c-4.88-1.7787-7.319-4.6207-7.319-8.526 0-1.392.251-2.6293.755-3.712.542-1.1213 1.278-2.0687 2.207-2.842.968-.812 2.111-1.4307 3.427-1.856 1.317-.4253 2.788-.638 4.415-.638.736 0 1.549.058 2.439.174.93.116 1.859.29 2.788.522.93.1933 1.821.4253 2.672.696.852.2707 1.588.5607 2.208.87 0 .9667-.194 1.972-.581 3.016s-.91 1.8173-1.568 2.32c-3.06-1.3533-5.712-2.03-7.958-2.03-1.007 0-1.801.2513-2.382.754-.581.464-.871 1.0827-.871 1.856 0 1.1987.968 2.146 2.904 2.842l3.543 1.276c2.556.8893 4.454 2.1073 5.693 3.654s1.859 3.3447 1.859 5.394c0 2.7453-1.027 4.9493-3.079 6.612-2.052 1.624-4.995 2.436-8.829 2.436-3.756 0-7.28-.9473-10.572-2.842z"/><path d="m248.5 33.176h-16.032c.116 2.1267.6 3.8087 1.452 5.046.891 1.1987 2.42 1.798 4.589 1.798 2.246 0 4.821-.6573 7.725-1.972 1.123 1.16 1.84 2.6873 2.149 4.582-3.097 2.204-6.815 3.306-11.152 3.306-4.105 0-7.222-1.2567-9.352-3.77-2.091-2.552-3.136-6.322-3.136-11.31 0-2.32.271-4.408.813-6.264.542-1.8947 1.336-3.4993 2.381-4.814 1.046-1.3533 2.324-2.3973 3.834-3.132s3.233-1.102 5.17-1.102c1.974 0 3.717.3093 5.227.928 1.511.58 2.788 1.4307 3.834 2.552 1.045 1.0827 1.82 2.378 2.323 3.886.543 1.508.814 3.1513.814 4.93 0 .9667-.059 1.8947-.175 2.784-.116.8507-.271 1.7013-.464 2.552zm-11.211-12.18c-3.02 0-4.647 2.2813-4.879 6.844h9.642v-.696c0-1.856-.387-3.3447-1.162-4.466-.774-1.1213-1.975-1.682-3.601-1.682z"/><path d="m257.506 53.244v-53.069999c.58-.1160006 1.239-.174001 1.975-.174001.774 0 1.49.0580004 2.149.174001v53.069999c-.659.116-1.375.174-2.149.174-.736 0-1.395-.058-1.975-.174z"/></g></svg>